<svg width="16" height="16" viewBox="0 0 16 16" fill="none" xmlns="http://www.w3.org/2000/svg">
<path d="M1 1H2.24618C3.01966 1 3.62841 1.66606 3.56396 2.43238L2.96952 9.56562C2.86925 10.733 3.79313 11.7357 4.96768 11.7357H12.5951C13.6264 11.7357 14.5288 10.8906 14.6076 9.86642L14.9943 4.495C15.0803 3.30613 14.1779 2.33927 12.9818 2.33927H3.73585" stroke="#292D32" stroke-miterlimit="10" stroke-linecap="round" stroke-linejoin="round"/>
<path d="M11.2057 15.3238C11.7001 15.3238 12.1009 14.923 12.1009 14.4286C12.1009 13.9341 11.7001 13.5333 11.2057 13.5333C10.7112 13.5333 10.3104 13.9341 10.3104 14.4286C10.3104 14.923 10.7112 15.3238 11.2057 15.3238Z" stroke="#292D32" stroke-miterlimit="10" stroke-linecap="round" stroke-linejoin="round"/>
<path d="M5.47617 15.3238C5.9706 15.3238 6.37141 14.923 6.37141 14.4286C6.37141 13.9341 5.9706 13.5333 5.47617 13.5333C4.98174 13.5333 4.58093 13.9341 4.58093 14.4286C4.58093 14.923 4.98174 15.3238 5.47617 15.3238Z" stroke="#292D32" stroke-miterlimit="10" stroke-linecap="round" stroke-linejoin="round"/>
<path d="M6.01331 5.29715H14.6076" stroke="#292D32" stroke-miterlimit="10" stroke-linecap="round" stroke-linejoin="round"/>
</svg>
