<svg width="14" height="14" viewBox="0 0 14 14" fill="none" xmlns="http://www.w3.org/2000/svg">
<path d="M6.67506 13.3489C2.99564 13.3489 0 10.3535 0 6.67445C0 2.99536 2.99564 0 6.67506 0C10.3545 0 13.3501 2.99536 13.3501 6.67445C13.3501 10.3535 10.3545 13.3489 6.67506 13.3489ZM6.67506 0.976749C3.52964 0.976749 0.976838 3.53583 0.976838 6.67445C0.976838 9.81307 3.52964 12.3722 6.67506 12.3722C9.82048 12.3722 12.3733 9.81307 12.3733 6.67445C12.3733 3.53583 9.82048 0.976749 6.67506 0.976749Z" fill="#292D32"/>
<path d="M13.5132 14C13.3895 14 13.2658 13.9544 13.1681 13.8567L11.8656 12.5544C11.6768 12.3656 11.6768 12.053 11.8656 11.8642C12.0545 11.6753 12.3671 11.6753 12.5559 11.8642L13.8584 13.1665C14.0472 13.3553 14.0472 13.6679 13.8584 13.8567C13.7607 13.9544 13.637 14 13.5132 14Z" fill="#292D32"/>
</svg>
