<svg width="499" height="115" viewBox="0 0 499 115" fill="none" xmlns="http://www.w3.org/2000/svg">
<path fill-rule="evenodd" clip-rule="evenodd" d="M12.0537 53.8426C8.77626 53.6464 5.50332 53.4276 2.23097 53.1914C1.59163 53.1448 1.06986 53.755 1.06642 54.5538C1.06297 55.3527 1.57924 56.0392 2.21858 56.0858C5.16419 56.2949 8.11018 56.4925 11.0543 56.6783C11.2208 56.8254 11.554 57.0443 12.1208 57.1866C29.7827 61.4807 48.7635 59.4904 66.7387 58.6554C83.6063 58.8594 100.477 58.751 117.349 58.4748C115.341 58.6371 113.334 58.7937 111.325 58.9385C110.907 58.9701 109.824 59.0565 109.675 59.0969C108.827 59.3499 108.82 60.264 108.827 60.4965C108.83 60.6127 108.918 61.8973 110.071 61.9815C122.462 62.8726 134.821 61.9763 147.129 61.2069C151.707 60.9198 156.28 60.6205 160.856 60.3099C162.447 60.1968 166.591 60.1132 167.161 60.001C167.774 59.8765 168.004 59.4 168.09 59.0279C178.024 58.6614 187.969 58.3889 197.919 58.2039C199.869 58.278 201.816 58.3575 203.764 58.4371C224.985 59.3295 246.204 60.32 267.423 61.0962C255.612 61.3161 243.772 61.5906 231.985 62.1492C229.571 62.2635 227.162 62.4595 224.749 62.5971C223.43 62.6671 220.017 62.5937 219.539 62.7689C218.828 63.0381 218.726 63.7211 218.713 64.0613C218.705 64.2689 218.777 65.4299 219.986 65.7639C242.407 71.9815 265.211 74.0049 287.883 76.3602C293.848 76.9783 299.811 77.6252 305.772 78.295C291.55 78.0446 277.169 76.8372 262.959 75.8526C262.828 75.6982 262.641 75.5487 262.374 75.4419C261.982 75.2797 260.773 75.044 258.572 74.7549C258.097 74.6931 257.674 74.9964 257.475 75.4824C254.098 75.2687 250.732 75.0735 247.381 74.915C236.409 74.3943 225.446 74.361 214.476 73.9043L211.993 73.773L211.475 73.7466C209.573 73.6318 207.246 73.4785 205.7 73.3768C204.808 73.3119 202.487 73.2113 202.166 73.2082C201.199 73.2097 201.052 74.3217 201.046 74.3731C201.043 74.4017 201.084 76.0339 202.408 76.1268C203.295 76.1911 206.641 76.3781 211.332 76.6313C212.511 76.7011 213.545 76.7596 214.161 76.7861L214.635 76.8074C229.634 77.5898 253.668 78.7334 260.466 78.5754C282.613 80.0578 305.222 82.2552 327.044 80.7165C327.759 80.6621 328.069 80.386 328.13 80.3236C328.462 79.9633 328.526 79.5423 328.507 79.1751C328.494 78.942 328.385 77.9966 327.475 77.7442C326.834 77.5643 322.237 77.2757 320.465 77.0722C309.63 75.8263 298.794 74.5976 287.955 73.4729C268.41 71.4408 248.766 69.6693 229.355 65.209C230.3 65.147 231.246 65.0909 232.193 65.0464C244.145 64.4782 256.15 64.2001 268.123 63.9821C305.307 63.3034 343.439 67.6365 380.422 65.1387C381.179 65.0893 381.514 64.8162 381.578 64.7543C381.931 64.3905 381.994 63.952 381.974 63.5789C381.962 63.3516 381.845 62.3937 380.917 62.145C380.151 61.9387 374.655 61.6193 372.537 61.3922C364.081 60.4854 355.618 59.572 347.158 58.9138C333.193 57.8308 319.201 56.9646 305.216 56.3427C304.017 55.9577 302.775 55.5967 301.493 55.2599C310.919 55.4241 320.342 55.6864 329.764 56.0818C368.383 57.6868 407.006 60.0741 445.629 62.8145C461.625 63.9522 477.866 66.2135 493.854 66.5046C494.42 66.5137 495.678 66.7087 496.296 66.7181C496.649 66.725 496.907 66.657 497.029 66.602C497.54 66.3611 497.699 65.8993 497.749 65.5345C497.791 65.2499 497.865 64.3146 496.903 63.7492C476.23 51.5875 443.754 54.0967 422.424 52.1143C335.327 44.0209 248.295 43.4587 161.452 45.8318C126.73 46.7783 92.097 47.7641 57.4699 50.0886C45.1816 50.9124 32.873 51.4848 20.6601 53.0703C19.0662 53.2816 15.6912 53.427 13.5308 53.635C12.9493 53.6937 12.4434 53.7671 12.0537 53.8426ZM490.367 63.5153C470.019 54.7627 441.608 56.791 422.373 55.004C335.351 46.9195 248.392 46.3544 161.623 48.7247C126.926 49.6741 92.3175 50.6572 57.714 52.9845C48.9112 53.5715 40.0972 54.0355 31.317 54.8337C43.0686 55.3191 54.8216 55.6137 66.5889 55.7593C69.0352 55.643 71.4651 55.5478 73.8702 55.4962C103.41 54.8465 133.016 54.2512 162.636 54.5261C172.428 54.2529 182.22 53.9622 192.02 53.6783C210.976 52.3106 236.852 50.3361 260.695 50.7564C268.896 50.9033 276.858 51.3346 284.221 52.1759C299.394 52.2492 314.558 52.5529 329.719 53.1865C368.358 54.788 406.999 57.1831 445.643 59.9262C460.471 60.9779 475.507 63.0042 490.367 63.5153ZM305.034 59.2285C296.073 58.8355 287.117 58.5472 278.175 58.3649C274.195 58.2884 270.215 58.2176 266.234 58.1583C268.409 58.2416 270.584 58.3191 272.758 58.3908C282.965 58.7457 293.196 59.121 303.398 59.2322C303.905 59.2342 304.585 59.2799 305.348 59.3352L305.048 59.236L305.034 59.2285ZM360.255 62.9925C355.882 62.5569 351.509 62.1443 347.136 61.8069C335.785 60.9287 324.417 60.1874 313.048 59.6082C313.324 59.8377 313.472 60.0522 313.541 60.1877C313.74 60.5704 313.777 60.9395 313.738 61.2709C313.715 61.4766 313.657 61.7189 313.52 61.946C329.13 62.54 344.759 63.1766 360.255 62.9925ZM289.607 55.7605C287.893 55.5057 286.137 55.275 284.344 55.0689C275.474 55.0283 266.604 55.0572 257.744 55.1452C264.523 55.2282 271.308 55.3351 278.091 55.4707C281.928 55.5477 285.767 55.6425 289.607 55.7605Z" fill="#2A574F"/>
</svg>
